<?xml version="1.0" encoding="UTF-8" standalone="no"?>
<!-- Created with Inkscape (http://www.inkscape.org/) -->

<svg
   xmlns:osb="http://www.openswatchbook.org/uri/2009/osb"
   xmlns:dc="http://purl.org/dc/elements/1.1/"
   xmlns:cc="http://creativecommons.org/ns#"
   xmlns:rdf="http://www.w3.org/1999/02/22-rdf-syntax-ns#"
   xmlns:svg="http://www.w3.org/2000/svg"
   xmlns="http://www.w3.org/2000/svg"
   xmlns:sodipodi="http://sodipodi.sourceforge.net/DTD/sodipodi-0.dtd"
   xmlns:inkscape="http://www.inkscape.org/namespaces/inkscape"
   width="210mm"
   height="297mm"
   viewBox="0 0 744.09448819 1052.3622047"
   id="svg2"
   version="1.1"
   inkscape:version="0.91 r13725"
   sodipodi:docname="minstrel.svg">
  <defs
     id="defs4">
    <linearGradient
       id="linearGradient5582"
       osb:paint="solid">
      <stop
         style="stop-color:#000000;stop-opacity:1;"
         offset="0"
         id="stop5584" />
    </linearGradient>
  </defs>
  <sodipodi:namedview
     id="base"
     pagecolor="#ffffff"
     bordercolor="#666666"
     borderopacity="1.0"
     inkscape:pageopacity="0.0"
     inkscape:pageshadow="2"
     inkscape:zoom="0.98994949"
     inkscape:cx="126.59507"
     inkscape:cy="547.03535"
     inkscape:document-units="px"
     inkscape:current-layer="layer1"
     showgrid="false"
     inkscape:window-width="3840"
     inkscape:window-height="2111"
     inkscape:window-x="1"
     inkscape:window-y="0"
     inkscape:window-maximized="0" />
  <metadata
     id="metadata7">
    <rdf:RDF>
      <cc:Work
         rdf:about="">
        <dc:format>image/svg+xml</dc:format>
        <dc:type
           rdf:resource="http://purl.org/dc/dcmitype/StillImage" />
        <dc:title></dc:title>
      </cc:Work>
    </rdf:RDF>
  </metadata>
  <g
     inkscape:label="Layer 1"
     inkscape:groupmode="layer"
     id="layer1">
    <path
       style="fill:#000000;fill-opacity:1;fill-rule:evenodd;stroke:#000000;stroke-opacity:1"
       id="path4138"
       sodipodi:type="arc"
       sodipodi:cx="176.7767"
       sodipodi:cy="534.659"
       sodipodi:rx="59.598999"
       sodipodi:ry="74.246216"
       sodipodi:start="6.179502"
       sodipodi:end="6.1345657"
       d="m 236.05564,526.97469 a 59.598999,74.246216 0 0 1 -52.44504,81.44081 59.598999,74.246216 0 0 1 -65.95929,-64.41506 59.598999,74.246216 0 0 1 50.96309,-82.88807 59.598999,74.246216 0 0 1 67.10431,62.55276"
       sodipodi:open="true" />
    <path
       style="fill:#000000;fill-rule:evenodd;stroke:#000000;stroke-width:1px;stroke-linecap:butt;stroke-linejoin:miter;stroke-opacity:1;fill-opacity:1"
       d="m 235.36554,550.31639 c 74.75129,-332.34019 57.5787,-340.42141 57.5787,-340.42141 l -41.41626,-63.63961 c 0,0 7.07107,142.43151 -21.2132,238.396 -28.28427,95.96449 -26.26397,86.87312 -26.26397,86.87312 z"
       id="path5592"
       inkscape:connector-curvature="0" />
    <path
       style="fill:#000000;fill-rule:evenodd;stroke:#000000;stroke-width:1px;stroke-linecap:butt;stroke-linejoin:miter;stroke-opacity:1;fill-opacity:1"
       d="M 211.12188,94.737592 C 355.5737,305.85947 366.68537,369.49908 366.68537,369.49908 l 7.07107,-97.98479 c 0,0 -93.94418,-158.59395 -124.24876,-185.868071 -30.30458,-27.274119 -38.3858,9.091373 -38.3858,9.091373 z"
       id="path5596"
       inkscape:connector-curvature="0" />
    <path
       inkscape:connector-curvature="0"
       id="path5598"
       d="M 522.22368,95.747747 C 377.77186,306.86963 366.66019,370.50924 366.66019,370.50924 l -7.07107,-97.98479 c 0,0 93.94418,-158.59395 124.24876,-185.868078 30.30458,-27.274119 38.3858,9.091375 38.3858,9.091375 z"
       style="fill:#000000;fill-opacity:1;fill-rule:evenodd;stroke:#000000;stroke-width:1px;stroke-linecap:butt;stroke-linejoin:miter;stroke-opacity:1" />
    <path
       sodipodi:open="true"
       d="m 446.16736,480.50768 a 59.598999,74.246216 0 0 1 -52.44504,81.44081 59.598999,74.246216 0 0 1 -65.95928,-64.41506 59.598999,74.246216 0 0 1 50.96308,-82.88807 59.598999,74.246216 0 0 1 67.10431,62.55276"
       sodipodi:end="6.1345657"
       sodipodi:start="6.179502"
       sodipodi:ry="74.246216"
       sodipodi:rx="59.598999"
       sodipodi:cy="488.19199"
       sodipodi:cx="386.88843"
       sodipodi:type="arc"
       id="path5600"
       style="fill:#000000;fill-opacity:1;fill-rule:evenodd;stroke:#000000;stroke-opacity:1" />
    <path
       inkscape:connector-curvature="0"
       id="path5602"
       d="m 446.47942,500.88565 c 74.79412,-314.17742 57.61169,-321.81699 57.61169,-321.81699 l -41.43999,-60.16163 c 0,0 7.07512,134.64746 -21.22536,225.36739 -28.30047,90.71992 -26.27902,82.1254 -26.27902,82.1254 z"
       style="fill:#000000;fill-opacity:1;fill-rule:evenodd;stroke:#000000;stroke-width:0.97256905px;stroke-linecap:butt;stroke-linejoin:miter;stroke-opacity:1" />
  </g>
</svg>
